<mxfile host="app.diagrams.net" modified="2024-01-03T10:27:20.478Z" agent="Mozilla/5.0 (Windows NT 10.0; Win64; x64) AppleWebKit/537.36 (KHTML, like Gecko) Chrome/120.0.0.0 Safari/537.36" etag="s0nGSe8Ht4hdL9WttqZh" version="22.1.16" type="github">
  <diagram name="Page-1" id="-eMpOVEWGyke3WGTZZot">
    <mxGraphModel dx="568" dy="1505" grid="0" gridSize="10" guides="0" tooltips="1" connect="1" arrows="1" fold="1" page="1" pageScale="1" pageWidth="827" pageHeight="1169" math="0" shadow="0">
      <root>
        <mxCell id="0" />
        <mxCell id="1" parent="0" />
        <mxCell id="syNTxDQ9dA7czl0h41md-3" value="Exciter" style="shape=cylinder3;whiteSpace=wrap;html=1;boundedLbl=1;backgroundOutline=1;size=15;fontFamily=Times New Roman;strokeWidth=2;" parent="1" vertex="1">
          <mxGeometry x="440" y="420" width="60" height="80" as="geometry" />
        </mxCell>
        <mxCell id="syNTxDQ9dA7czl0h41md-12" value="" style="shape=parallelogram;html=1;strokeWidth=2;perimeter=parallelogramPerimeter;whiteSpace=wrap;rounded=1;arcSize=0;size=0.15620162135870902;fillColor=none;" parent="1" vertex="1">
          <mxGeometry x="425" y="417" width="90" height="36" as="geometry" />
        </mxCell>
        <mxCell id="syNTxDQ9dA7czl0h41md-5" style="edgeStyle=orthogonalEdgeStyle;rounded=0;orthogonalLoop=1;jettySize=auto;html=1;exitX=1;exitY=0.5;exitDx=0;exitDy=0;entryX=0;entryY=0.5;entryDx=0;entryDy=0;endArrow=none;endFill=0;" parent="1" source="syNTxDQ9dA7czl0h41md-1" target="syNTxDQ9dA7czl0h41md-2" edge="1">
          <mxGeometry relative="1" as="geometry" />
        </mxCell>
        <mxCell id="syNTxDQ9dA7czl0h41md-1" value="Wave generator" style="rounded=0;whiteSpace=wrap;html=1;fontFamily=Times New Roman;strokeWidth=2;" parent="1" vertex="1">
          <mxGeometry x="257" y="447" width="80" height="37.5" as="geometry" />
        </mxCell>
        <mxCell id="syNTxDQ9dA7czl0h41md-2" value="" style="triangle;whiteSpace=wrap;html=1;fontSize=12;strokeWidth=2;" parent="1" vertex="1">
          <mxGeometry x="372" y="442" width="36" height="47" as="geometry" />
        </mxCell>
        <mxCell id="syNTxDQ9dA7czl0h41md-4" value="Power amplifier" style="text;strokeColor=none;align=center;fillColor=none;html=1;verticalAlign=middle;whiteSpace=wrap;rounded=0;fontFamily=Times New Roman;" parent="1" vertex="1">
          <mxGeometry x="358" y="494" width="60" height="30" as="geometry" />
        </mxCell>
        <mxCell id="syNTxDQ9dA7czl0h41md-7" value="" style="shape=cylinder3;whiteSpace=wrap;html=1;boundedLbl=1;backgroundOutline=1;size=3.1264171381108667;" parent="1" vertex="1">
          <mxGeometry x="449" y="430" width="13" height="8" as="geometry" />
        </mxCell>
        <mxCell id="syNTxDQ9dA7czl0h41md-28" value="" style="endArrow=none;html=1;rounded=0;strokeWidth=3;" parent="1" edge="1">
          <mxGeometry width="50" height="50" relative="1" as="geometry">
            <mxPoint x="430" y="404" as="sourcePoint" />
            <mxPoint x="453" y="404" as="targetPoint" />
          </mxGeometry>
        </mxCell>
        <mxCell id="syNTxDQ9dA7czl0h41md-30" value="" style="line;strokeWidth=3;direction=south;html=1;" parent="1" vertex="1">
          <mxGeometry x="424" y="387" width="10" height="32" as="geometry" />
        </mxCell>
        <mxCell id="syNTxDQ9dA7czl0h41md-33" value="" style="endArrow=none;html=1;rounded=0;strokeWidth=3;" parent="1" edge="1">
          <mxGeometry width="50" height="50" relative="1" as="geometry">
            <mxPoint x="452" y="403" as="sourcePoint" />
            <mxPoint x="472.1232876712329" y="434" as="targetPoint" />
          </mxGeometry>
        </mxCell>
        <mxCell id="syNTxDQ9dA7czl0h41md-32" value="" style="shape=cylinder3;whiteSpace=wrap;html=1;boundedLbl=1;backgroundOutline=1;size=3.915486080545861;rotation=90;" parent="1" vertex="1">
          <mxGeometry x="314" y="259" width="14.22" height="10.06" as="geometry" />
        </mxCell>
        <mxCell id="Ww5bomZP4bkgs4StKyrw-55" style="rounded=0;orthogonalLoop=1;jettySize=auto;html=1;exitX=1.055;exitY=0.587;exitDx=0;exitDy=0;exitPerimeter=0;endSize=2;" edge="1" parent="1" source="syNTxDQ9dA7czl0h41md-39">
          <mxGeometry relative="1" as="geometry">
            <mxPoint x="423.0857282366071" y="402.5" as="targetPoint" />
          </mxGeometry>
        </mxCell>
        <mxCell id="syNTxDQ9dA7czl0h41md-39" value="Accelerometer" style="text;strokeColor=none;align=center;fillColor=none;html=1;verticalAlign=middle;whiteSpace=wrap;rounded=0;fontFamily=Times New Roman;" parent="1" vertex="1">
          <mxGeometry x="319" y="394" width="74" height="15" as="geometry" />
        </mxCell>
        <mxCell id="syNTxDQ9dA7czl0h41md-44" value="&lt;font face=&quot;Times New Roman&quot;&gt;Smartphone&lt;/font&gt;" style="text;strokeColor=none;align=center;fillColor=none;html=1;verticalAlign=middle;whiteSpace=wrap;rounded=0;" parent="1" vertex="1">
          <mxGeometry x="486" y="344" width="62" height="13" as="geometry" />
        </mxCell>
        <mxCell id="Ww5bomZP4bkgs4StKyrw-16" style="edgeStyle=orthogonalEdgeStyle;rounded=0;orthogonalLoop=1;jettySize=auto;html=1;exitX=1;exitY=0.5;exitDx=0;exitDy=0;entryX=0;entryY=0.5;entryDx=0;entryDy=0;endArrow=none;endFill=0;" edge="1" source="Ww5bomZP4bkgs4StKyrw-17" target="Ww5bomZP4bkgs4StKyrw-19" parent="1">
          <mxGeometry relative="1" as="geometry" />
        </mxCell>
        <mxCell id="Ww5bomZP4bkgs4StKyrw-17" value="wave generator" style="rounded=0;whiteSpace=wrap;html=1;fontFamily=Times New Roman;strokeWidth=2;" vertex="1" parent="1">
          <mxGeometry x="257" y="49" width="80" height="37.5" as="geometry" />
        </mxCell>
        <mxCell id="Ww5bomZP4bkgs4StKyrw-18" style="edgeStyle=orthogonalEdgeStyle;rounded=0;orthogonalLoop=1;jettySize=auto;html=1;exitX=1;exitY=0.5;exitDx=0;exitDy=0;endArrow=none;endFill=0;" edge="1" source="Ww5bomZP4bkgs4StKyrw-19" parent="1">
          <mxGeometry relative="1" as="geometry">
            <mxPoint x="470.0000000000001" y="68" as="targetPoint" />
          </mxGeometry>
        </mxCell>
        <mxCell id="Ww5bomZP4bkgs4StKyrw-19" value="" style="triangle;whiteSpace=wrap;html=1;fontSize=12;strokeWidth=2;" vertex="1" parent="1">
          <mxGeometry x="372" y="44" width="36" height="47" as="geometry" />
        </mxCell>
        <mxCell id="Ww5bomZP4bkgs4StKyrw-20" value="exciter" style="shape=cylinder3;whiteSpace=wrap;html=1;boundedLbl=1;backgroundOutline=1;size=15;fontFamily=Times New Roman;strokeWidth=2;" vertex="1" parent="1">
          <mxGeometry x="440" y="28" width="60" height="80" as="geometry" />
        </mxCell>
        <mxCell id="Ww5bomZP4bkgs4StKyrw-21" value="power amplifier" style="text;strokeColor=none;align=center;fillColor=none;html=1;verticalAlign=middle;whiteSpace=wrap;rounded=0;fontFamily=Times New Roman;" vertex="1" parent="1">
          <mxGeometry x="354" y="93" width="60" height="30" as="geometry" />
        </mxCell>
        <mxCell id="Ww5bomZP4bkgs4StKyrw-22" value="" style="shape=cylinder3;whiteSpace=wrap;html=1;boundedLbl=1;backgroundOutline=1;size=3.915486080545861;" vertex="1" parent="1">
          <mxGeometry x="460" y="33" width="20" height="10" as="geometry" />
        </mxCell>
        <mxCell id="Ww5bomZP4bkgs4StKyrw-23" value="" style="endArrow=none;html=1;rounded=0;shape=link;width=3.333333333333332;exitX=0.486;exitY=0.209;exitDx=0;exitDy=0;exitPerimeter=0;" edge="1" parent="1">
          <mxGeometry width="50" height="50" relative="1" as="geometry">
            <mxPoint x="469.7199999999999" y="38.09000000000003" as="sourcePoint" />
            <mxPoint x="470" y="21" as="targetPoint" />
          </mxGeometry>
        </mxCell>
        <mxCell id="Ww5bomZP4bkgs4StKyrw-24" value="" style="shape=parallelogram;html=1;strokeWidth=2;perimeter=parallelogramPerimeter;whiteSpace=wrap;rounded=1;arcSize=0;size=0.07500000000000086;fillColor=none;" vertex="1" parent="1">
          <mxGeometry x="430" y="25.5" width="90" height="25" as="geometry" />
        </mxCell>
        <mxCell id="Ww5bomZP4bkgs4StKyrw-25" value="" style="line;strokeWidth=2;html=1;rotation=45;" vertex="1" parent="1">
          <mxGeometry x="417.41" y="-22.170000000000016" width="119.83" height="11" as="geometry" />
        </mxCell>
        <mxCell id="Ww5bomZP4bkgs4StKyrw-26" value="" style="line;strokeWidth=2;html=1;rotation=45;" vertex="1" parent="1">
          <mxGeometry x="409.92" y="2.589999999999975" width="118.93" height="10" as="geometry" />
        </mxCell>
        <mxCell id="Ww5bomZP4bkgs4StKyrw-27" value="" style="line;strokeWidth=2;html=1;rotation=-75;" vertex="1" parent="1">
          <mxGeometry x="417.72" y="-52" width="27.28" height="10" as="geometry" />
        </mxCell>
        <mxCell id="Ww5bomZP4bkgs4StKyrw-28" value="" style="endArrow=none;html=1;rounded=0;" edge="1" source="Ww5bomZP4bkgs4StKyrw-32" parent="1">
          <mxGeometry width="50" height="50" relative="1" as="geometry">
            <mxPoint x="452" y="10" as="sourcePoint" />
            <mxPoint x="472" y="-10" as="targetPoint" />
          </mxGeometry>
        </mxCell>
        <mxCell id="Ww5bomZP4bkgs4StKyrw-29" value="" style="endArrow=none;html=1;rounded=0;strokeWidth=2;" edge="1" parent="1">
          <mxGeometry width="50" height="50" relative="1" as="geometry">
            <mxPoint x="432" y="10" as="sourcePoint" />
            <mxPoint x="452" y="10" as="targetPoint" />
          </mxGeometry>
        </mxCell>
        <mxCell id="Ww5bomZP4bkgs4StKyrw-30" value="" style="line;strokeWidth=3;direction=south;html=1;" vertex="1" parent="1">
          <mxGeometry x="426" y="-8" width="10" height="32" as="geometry" />
        </mxCell>
        <mxCell id="Ww5bomZP4bkgs4StKyrw-31" value="" style="endArrow=none;html=1;rounded=0;strokeWidth=2;" edge="1" target="Ww5bomZP4bkgs4StKyrw-32" parent="1">
          <mxGeometry width="50" height="50" relative="1" as="geometry">
            <mxPoint x="452" y="10" as="sourcePoint" />
            <mxPoint x="472" y="-10" as="targetPoint" />
          </mxGeometry>
        </mxCell>
        <mxCell id="Ww5bomZP4bkgs4StKyrw-32" value="" style="shape=cylinder3;whiteSpace=wrap;html=1;boundedLbl=1;backgroundOutline=1;size=3.915486080545861;rotation=45;" vertex="1" parent="1">
          <mxGeometry x="463.8" y="-13.550000000000011" width="14.22" height="10.06" as="geometry" />
        </mxCell>
        <mxCell id="Ww5bomZP4bkgs4StKyrw-33" style="edgeStyle=orthogonalEdgeStyle;rounded=0;orthogonalLoop=1;jettySize=auto;html=1;exitX=0.5;exitY=1;exitDx=0;exitDy=0;endSize=4;endArrow=classic;endFill=1;" edge="1" parent="1">
          <mxGeometry relative="1" as="geometry">
            <mxPoint x="478" y="-9" as="targetPoint" />
            <mxPoint x="523" y="-46" as="sourcePoint" />
            <Array as="points">
              <mxPoint x="523" y="-9" />
              <mxPoint x="482" y="-9" />
            </Array>
          </mxGeometry>
        </mxCell>
        <mxCell id="Ww5bomZP4bkgs4StKyrw-34" value="accelerometer" style="text;strokeColor=none;align=center;fillColor=none;html=1;verticalAlign=middle;whiteSpace=wrap;rounded=0;fontFamily=Times New Roman;" vertex="1" parent="1">
          <mxGeometry x="499" y="-63" width="52" height="15" as="geometry" />
        </mxCell>
        <mxCell id="Ww5bomZP4bkgs4StKyrw-35" style="edgeStyle=orthogonalEdgeStyle;rounded=0;orthogonalLoop=1;jettySize=auto;html=1;entryX=0.609;entryY=0.511;entryDx=0;entryDy=0;entryPerimeter=0;endSize=4;endArrow=classic;endFill=1;" edge="1" parent="1">
          <mxGeometry relative="1" as="geometry">
            <mxPoint x="364" y="-44" as="sourcePoint" />
            <mxPoint x="427.8900000000001" y="9.488000000000056" as="targetPoint" />
            <Array as="points">
              <mxPoint x="364" y="9" />
              <mxPoint x="414" y="9" />
            </Array>
          </mxGeometry>
        </mxCell>
        <mxCell id="Ww5bomZP4bkgs4StKyrw-36" value="&lt;font face=&quot;Times New Roman&quot;&gt;smartphone&lt;/font&gt;" style="text;strokeColor=none;align=center;fillColor=none;html=1;verticalAlign=middle;whiteSpace=wrap;rounded=0;" vertex="1" parent="1">
          <mxGeometry x="337" y="-61" width="52" height="15" as="geometry" />
        </mxCell>
        <mxCell id="Ww5bomZP4bkgs4StKyrw-41" value="" style="rounded=0;whiteSpace=wrap;html=1;" vertex="1" parent="1">
          <mxGeometry x="291" y="274" width="7" height="13" as="geometry" />
        </mxCell>
        <mxCell id="Ww5bomZP4bkgs4StKyrw-40" value="" style="rounded=0;whiteSpace=wrap;html=1;" vertex="1" parent="1">
          <mxGeometry x="425" y="399" width="3" height="9" as="geometry" />
        </mxCell>
        <mxCell id="Ww5bomZP4bkgs4StKyrw-47" value="&lt;font face=&quot;Times New Roman&quot;&gt;Mounting&lt;/font&gt;" style="text;strokeColor=none;align=center;fillColor=none;html=1;verticalAlign=middle;whiteSpace=wrap;rounded=0;" vertex="1" parent="1">
          <mxGeometry x="486" y="365" width="52" height="15" as="geometry" />
        </mxCell>
        <mxCell id="Ww5bomZP4bkgs4StKyrw-50" style="rounded=0;orthogonalLoop=1;jettySize=auto;html=1;exitX=0;exitY=0.75;exitDx=0;exitDy=0;endSize=2;" edge="1" parent="1">
          <mxGeometry relative="1" as="geometry">
            <mxPoint x="485" y="352.75" as="sourcePoint" />
            <mxPoint x="431" y="397.82627118644064" as="targetPoint" />
          </mxGeometry>
        </mxCell>
        <mxCell id="Ww5bomZP4bkgs4StKyrw-53" style="rounded=0;orthogonalLoop=1;jettySize=auto;html=1;exitX=0;exitY=0.75;exitDx=0;exitDy=0;endSize=2;" edge="1" parent="1" source="Ww5bomZP4bkgs4StKyrw-47">
          <mxGeometry relative="1" as="geometry">
            <mxPoint x="483" y="368" as="sourcePoint" />
            <mxPoint x="455" y="404" as="targetPoint" />
          </mxGeometry>
        </mxCell>
        <mxCell id="Ww5bomZP4bkgs4StKyrw-59" style="edgeStyle=orthogonalEdgeStyle;rounded=0;orthogonalLoop=1;jettySize=auto;html=1;entryX=0;entryY=1;entryDx=0;entryDy=-3.1264171381108667;entryPerimeter=0;exitX=0.5;exitY=1;exitDx=0;exitDy=0;endSize=2;" edge="1" parent="1" source="syNTxDQ9dA7czl0h41md-39" target="syNTxDQ9dA7czl0h41md-7">
          <mxGeometry relative="1" as="geometry" />
        </mxCell>
        <mxCell id="Ww5bomZP4bkgs4StKyrw-60" style="edgeStyle=orthogonalEdgeStyle;rounded=0;orthogonalLoop=1;jettySize=auto;html=1;exitX=1;exitY=0.5;exitDx=0;exitDy=0;endArrow=none;endFill=0;entryX=-0.017;entryY=0.575;entryDx=0;entryDy=0;entryPerimeter=0;" edge="1" parent="1" source="syNTxDQ9dA7czl0h41md-2" target="syNTxDQ9dA7czl0h41md-3">
          <mxGeometry relative="1" as="geometry">
            <mxPoint x="438" y="466" as="targetPoint" />
          </mxGeometry>
        </mxCell>
        <mxCell id="Ww5bomZP4bkgs4StKyrw-64" value="" style="endArrow=none;html=1;rounded=0;strokeWidth=3;" edge="1" parent="1">
          <mxGeometry width="50" height="50" relative="1" as="geometry">
            <mxPoint x="466" y="434" as="sourcePoint" />
            <mxPoint x="476" y="434" as="targetPoint" />
          </mxGeometry>
        </mxCell>
        <mxCell id="Ww5bomZP4bkgs4StKyrw-66" value="&lt;font face=&quot;Times New Roman&quot;&gt;Platform&lt;/font&gt;" style="text;strokeColor=none;align=center;fillColor=none;html=1;verticalAlign=middle;whiteSpace=wrap;rounded=0;" vertex="1" parent="1">
          <mxGeometry x="485" y="392" width="52" height="15" as="geometry" />
        </mxCell>
        <mxCell id="Ww5bomZP4bkgs4StKyrw-70" style="rounded=0;orthogonalLoop=1;jettySize=auto;html=1;entryX=0;entryY=0.5;entryDx=0;entryDy=0;entryPerimeter=0;exitX=0;exitY=0.75;exitDx=0;exitDy=0;endSize=2;" edge="1" parent="1" source="Ww5bomZP4bkgs4StKyrw-66">
          <mxGeometry relative="1" as="geometry">
            <mxPoint x="507" y="381" as="sourcePoint" />
            <mxPoint x="470" y="415.5" as="targetPoint" />
          </mxGeometry>
        </mxCell>
      </root>
    </mxGraphModel>
  </diagram>
</mxfile>
